<?xml version="1.0" encoding="utf-8"?>
<!-- Generator: Adobe Illustrator 16.0.0, SVG Export Plug-In . SVG Version: 6.00 Build 0)  -->
<!DOCTYPE svg PUBLIC "-//W3C//DTD SVG 1.1//EN" "http://www.w3.org/Graphics/SVG/1.1/DTD/svg11.dtd">
<svg version="1.1" xmlns="http://www.w3.org/2000/svg" xmlns:xlink="http://www.w3.org/1999/xlink" x="0px" y="0px" width="960px"
	 height="560px" viewBox="0 0 960 560" enable-background="new 0 0 960 560" xml:space="preserve">
<g id="Layer_2">
	<g>
		<path fill-rule="evenodd" clip-rule="evenodd" d="M401,110.664l-28.524,94.164C392.793,140.127,617,215,617,215V8.202
			C471.5,121.111,401,110.664,401,110.664z"/>
	</g>
	<g>
		<path d="M611.043,364c0.005,0,0.008,0,0.013,0c0-21-0.019-41.915,0.007-63.016c0.013-10.71-2.472-19.796-7.656-29.166
			c-10.875-19.657-31.394-31.657-53.864-31.657c-40.806,0-81.604-0.801-122.406-0.808c-3.549,0-7.072,1.141-10.576,1.75
			c-11.438,1.989-21.58,6.773-30.203,14.524c-13.739,12.35-20.729,27.027-20.766,45.497c-0.08,42.281-0.024,84.564-0.021,126.846
			c0,4.813,0.493,9.581,1.621,14.265c3.148,13.083,9.803,24.06,20.064,32.75c11.565,9.791,24.999,14.612,40.163,14.61
			c40.608-0.008,81.212-0.012,121.82,0.002c11.219,0.007,21.791-2.543,31.36-8.413c19.451-11.928,29.923-29.665,30.359-52.521
			C611.362,407.211,611.043,386,611.043,364z M591.956,364.524c0,18.002,0.002,36.003,0,54.007
			c0,19.525-11.271,37.613-28.813,46.248c-6.649,3.273-13.658,5.114-21.083,5.301c-1.757,0.047-3.517,0.083-5.273,0.083
			c-33.184,0.005-66.367,0-99.549,0.009c-5.703,0.004-11.285-0.744-16.713-2.521c-8.755-2.861-16.225-7.716-22.422-14.517
			c-4.898-5.372-8.479-11.525-10.801-18.403c-1.821-5.408-2.659-10.975-2.658-16.682c0.009-35.724-0.025-71.448,0.021-107.172
			c0.018-14.637,5.314-27.162,15.77-37.389c8.296-8.119,18.304-12.875,29.856-14.257c2.102-0.254,4.229-0.369,6.343-0.371
			c34.86-0.019,69.716-0.055,104.574,0.019c9.535,0.019,18.356,2.788,26.423,7.87c9.294,5.852,16.077,13.873,20.359,23.973
			c2.604,6.161,3.95,12.607,3.959,19.297C591.974,328.187,591.956,346.356,591.956,364.524z"/>
		<path fill="#FFFFFF" d="M587.989,290.722c-4.282-10.101-11.065-18.122-20.359-23.973c-8.066-5.082-16.888-7.851-26.423-7.87
			c-34.857-0.074-69.714-0.038-104.574-0.019c-2.115,0.002-4.241,0.117-6.343,0.371c-11.552,1.382-21.56,6.138-29.856,14.257
			c-10.456,10.227-15.752,22.752-15.77,37.389c-0.046,35.724-0.012,71.448-0.021,107.172c-0.001,5.707,0.836,11.273,2.658,16.682
			c2.323,6.878,5.903,13.031,10.801,18.403c6.197,6.801,13.667,11.655,22.422,14.517c5.428,1.777,11.01,2.525,16.713,2.521
			c33.182-0.009,66.366-0.004,99.549-0.009c1.757,0,3.517-0.036,5.273-0.083c7.425-0.187,14.434-2.027,21.083-5.301
			c17.541-8.635,28.813-26.723,28.813-46.248c0.002-18.004,0-36.005,0-54.007c0-18.168,0.018-36.338-0.008-54.506
			C591.939,303.329,590.594,296.883,587.989,290.722z M488.08,427.33c-34.729-0.117-63.461-28.692-62.585-64.467
			c0.827-33.672,28.38-61.193,62.915-61.208c34.591,0.093,62.874,28.061,62.733,63.086
			C551.001,399.842,522.429,427.448,488.08,427.33z M553.399,318.011c-10.422-0.01-18.857-8.438-18.857-18.834
			c0.006-10.454,8.441-18.874,18.917-18.874c10.437,0.003,18.874,8.475,18.844,18.93
			C572.277,309.637,563.835,318.023,553.399,318.011z"/>
		<path d="M488.409,301.655c-34.534,0.015-62.088,27.536-62.915,61.208c-0.875,35.774,27.856,64.35,62.585,64.467
			c34.349,0.118,62.921-27.488,63.063-62.589C551.283,329.716,523,301.748,488.409,301.655z M534.625,363.703
			c-0.371,15.481-5.821,27.751-16.963,37.313c-6.9,5.919-14.952,9.433-24.02,10.47c-18.525,2.119-36.378-7.115-45.426-23.434
			c-3.079-5.552-5.102-11.456-5.777-17.76c-1.518-14.118,2.212-26.673,11.563-37.432c6.545-7.536,14.762-12.377,24.497-14.601
			c4.57-1.042,9.207-1.379,13.871-0.905c11.719,1.188,21.61,6.103,29.602,14.758c6.378,6.901,10.325,15.028,11.875,24.285
			C534.301,359.085,534.433,361.825,534.625,363.703z"/>
		<path d="M553.459,280.303c-10.476,0-18.911,8.42-18.917,18.874c0,10.396,8.436,18.824,18.857,18.834
			c10.436,0.013,18.878-8.374,18.903-18.778C572.333,288.777,563.896,280.306,553.459,280.303z"/>
		<path fill="#FFFFFF" d="M492.369,317.355c-4.664-0.474-9.301-0.137-13.871,0.905c-9.734,2.224-17.952,7.064-24.497,14.601
			c-9.35,10.759-13.081,23.313-11.563,37.432c0.676,6.304,2.699,12.208,5.777,17.76c9.048,16.318,26.901,25.553,45.426,23.434
			c9.067-1.037,17.119-4.551,24.02-10.47c11.142-9.563,16.592-21.832,16.963-37.313c-0.192-1.878-0.324-4.618-0.779-7.305
			c-1.55-9.257-5.497-17.384-11.875-24.285C513.979,323.458,504.088,318.544,492.369,317.355z"/>
	</g>
</g>
<g id="Layer_4" display="none">
	<g display="inline">
		<path fill-rule="evenodd" clip-rule="evenodd" d="M396.969-477.735c0-17.496,0.016-34.992-0.007-52.488
			c-0.011-8.883,2.049-17.23,6.349-25.002c9.018-16.301,26.034-26.307,44.668-26.307c33.835,0,161.798,0.002,195.634-0.004
			c2.945,0,5.865,0.236,8.768,0.74c9.488,1.65,17.896,5.609,25.049,12.035c11.395,10.242,17.188,23.107,17.217,38.424
			c0.068,35.063,0.023,70.123,0.02,105.186c-0.002,3.99-0.408,7.943-1.342,11.828c-2.609,10.848-8.129,19.951-16.639,27.156
			c-9.59,8.119-20.73,12.117-33.307,12.115c-33.674-0.006-67.346-0.01-101.02,0.002c-9.303,0.006-112.199-2.109-120.133-6.977
			c-16.132-9.891-24.815-24.367-25.176-43.32c-0.339-17.789-0.088-35.592-0.088-53.389
			C330.777-477.735,396.971-477.735,396.969-477.735z M506.936-432.983c0,16.193,9.348,31.193,23.891,38.354
			c5.516,2.713,11.328,4.238,17.486,4.396c1.457,0.037,2.914,0.068,4.371,0.068c27.518,0.004,55.035,0,82.553,0.008
			c4.729,0.002,9.357-0.619,13.859-2.092c7.258-2.373,13.455-6.398,18.596-12.039c4.061-4.453,7.031-9.557,8.955-15.26
			c1.512-4.484,2.205-9.102,2.203-13.834c-0.006-29.623,0.021-59.248-0.016-88.871c-0.016-12.141-4.406-22.525-13.076-31.006
			c-6.883-6.732-15.18-10.678-24.762-11.824c-1.74-0.209-3.506-0.305-5.26-0.307c-28.904-0.018-57.813-0.047-86.719,0.016
			c-7.906,0.016-15.221,2.313-21.91,6.525c-7.707,4.854-13.332,11.504-16.883,19.881c-2.162,5.107-3.277,10.453-3.283,16.002
			c-0.02,15.066-0.006,30.133-0.006,45.199C506.936-462.839,506.934-447.909,506.936-432.983z"/>
		<path fill-rule="evenodd" clip-rule="evenodd" fill="#FFFFFF" d="M506.941-522.966c0.006-5.549,1.121-10.895,3.283-16.002
			c3.551-8.377,9.176-15.027,16.883-19.881c6.689-4.213,14.004-6.51,21.91-6.525c28.906-0.063,57.814-0.033,86.719-0.016
			c1.754,0.002,3.52,0.098,5.26,0.307c9.582,1.146,17.879,5.092,24.762,11.824c8.67,8.48,13.061,18.865,13.076,31.006
			c0.037,29.623,0.01,59.248,0.016,88.871c0.002,4.732-0.691,9.35-2.203,13.834c-1.924,5.703-4.895,10.807-8.955,15.26
			c-5.141,5.641-11.338,9.666-18.596,12.039c-4.502,1.473-9.131,2.094-13.859,2.092c-27.518-0.008-55.035-0.004-82.553-0.008
			c-1.457,0-2.914-0.031-4.371-0.068c-6.158-0.158-11.971-1.684-17.486-4.396c-14.543-7.16-23.891-22.16-23.891-38.354
			c-0.002-14.926,0-29.855,0-44.783C506.936-492.833,506.922-507.899,506.941-522.966z"/>
		<path fill-rule="evenodd" clip-rule="evenodd" d="M672.975-479.144c0.727,29.666-23.1,53.363-51.9,53.459
			c-28.482,0.098-52.178-22.795-52.293-51.902c-0.115-29.045,23.334-52.238,52.02-52.314
			C649.439-529.888,672.289-507.067,672.975-479.144z M596.543-447.507c5.723,4.91,12.4,7.822,19.92,8.684
			c15.359,1.758,30.166-5.9,37.67-19.434c2.553-4.604,4.229-9.5,4.791-14.727c1.26-11.707-1.836-22.119-9.588-31.041
			c-5.43-6.25-12.242-10.262-20.316-12.105c-3.791-0.867-7.635-1.146-11.504-0.754c-9.717,0.986-17.916,5.063-24.545,12.24
			c-5.285,5.723-8.563,12.463-9.85,20.137c-0.375,2.229-0.484,4.502-0.643,6.059C582.785-465.61,587.307-455.435,596.543-447.507z"
			/>
		<path fill-rule="evenodd" clip-rule="evenodd" d="M582.545-531.956c-0.002-8.67-7-15.65-15.684-15.65
			c-8.658,0-15.652,7.025-15.629,15.697c0.023,8.629,7.021,15.582,15.676,15.57C575.551-516.349,582.547-523.337,582.545-531.956z"
			/>
		<path fill-rule="evenodd" clip-rule="evenodd" fill="#FFFFFF" d="M582.479-478.448c0.307,12.838,4.828,23.014,14.064,30.941
			c5.723,4.91,12.4,7.822,19.92,8.684c15.359,1.758,30.166-5.9,37.67-19.434c2.553-4.604,4.229-9.5,4.791-14.727
			c1.26-11.707-1.836-22.119-9.588-31.041c-5.43-6.25-12.242-10.262-20.316-12.105c-3.791-0.867-7.635-1.146-11.504-0.754
			c-9.717,0.986-17.916,5.063-24.545,12.24c-5.285,5.723-8.563,12.463-9.85,20.137C582.746-482.278,582.637-480.005,582.479-478.448
			z"/>
	</g>
	<g display="inline">
		<path fill-rule="evenodd" clip-rule="evenodd" d="M869.621-157.218c0-18.769,0.018-37.534-0.006-56.303
			c-0.013-9.527,2.198-18.482,6.809-26.817c9.673-17.486,27.928-28.219,47.914-28.219c36.293,0,173.553,0.003,209.848-0.004
			c3.158,0,6.291,0.254,9.404,0.794c10.178,1.77,19.197,6.018,26.869,12.909c12.223,10.986,18.436,24.787,18.467,41.216
			c0.074,37.61,0.025,75.217,0.021,112.828c-0.002,4.279-0.438,8.521-1.439,12.688c-2.799,11.636-8.719,21.4-17.846,29.129
			c-10.287,8.71-22.238,12.997-35.729,12.994c-36.119-0.005-72.238-0.01-108.359,0.003c-9.979,0.006-120.35-2.263-128.859-7.483
			c-17.306-10.609-26.62-26.137-27.006-46.467c-0.364-19.083-0.094-38.178-0.094-57.268 M987.578-109.216
			c0,17.37,10.026,33.461,25.626,41.141c5.915,2.91,12.151,4.547,18.757,4.717c1.564,0.038,3.125,0.072,4.688,0.072
			c29.518,0.004,59.035,0,88.553,0.009c5.07,0.001,10.037-0.664,14.865-2.244c7.785-2.546,14.432-6.863,19.947-12.913
			c4.355-4.777,7.541-10.251,9.605-16.368c1.621-4.812,2.365-9.764,2.363-14.84c-0.008-31.774,0.023-63.553-0.018-95.328
			c-0.016-13.021-4.727-24.161-14.027-33.258c-7.383-7.223-16.281-11.454-26.559-12.684c-1.867-0.224-3.762-0.327-5.643-0.33
			c-31.004-0.018-62.012-0.049-93.02,0.019c-8.48,0.017-16.326,2.479-23.502,6.999c-8.267,5.206-14.301,12.34-18.109,21.325
			c-2.319,5.478-3.516,11.213-3.521,17.164c-0.021,16.162-0.006,32.322-0.006,48.483
			C987.578-141.239,987.575-125.225,987.578-109.216z"/>
		<path fill-rule="evenodd" clip-rule="evenodd" fill="#FFFFFF" d="M987.584-205.735c0.006-5.951,1.202-11.687,3.521-17.164
			c3.809-8.985,9.843-16.119,18.109-21.325c7.176-4.52,15.021-6.982,23.502-6.999c31.008-0.067,62.016-0.036,93.02-0.019
			c1.881,0.003,3.775,0.106,5.643,0.33c10.277,1.229,19.176,5.461,26.559,12.684c9.301,9.097,14.012,20.236,14.027,33.258
			c0.041,31.775,0.01,63.554,0.018,95.328c0.002,5.076-0.742,10.028-2.363,14.84c-2.064,6.117-5.25,11.591-9.605,16.368
			c-5.516,6.05-12.162,10.367-19.947,12.913c-4.828,1.58-9.795,2.245-14.865,2.244c-29.518-0.009-59.035-0.005-88.553-0.009
			c-1.563,0-3.123-0.034-4.688-0.072c-6.605-0.17-12.842-1.807-18.757-4.717c-15.6-7.68-25.626-23.771-25.626-41.141
			c-0.003-16.009,0-32.023,0-48.036C987.578-173.413,987.563-189.573,987.584-205.735z"/>
		<path fill-rule="evenodd" clip-rule="evenodd" d="M1165.68-158.729c0.779,31.822-24.777,57.241-55.67,57.343
			c-30.553,0.105-55.969-24.449-56.092-55.672c-0.125-31.155,25.027-56.034,55.797-56.116
			C1140.434-213.16,1164.945-188.682,1165.68-158.729z M1083.695-124.794c6.139,5.267,13.301,8.392,21.367,9.314
			c16.477,1.886,32.357-6.328,40.406-20.846c2.738-4.938,4.537-10.188,5.141-15.796c1.35-12.558-1.971-23.726-10.285-33.296
			c-5.824-6.704-13.133-11.009-21.793-12.986c-4.066-0.93-8.189-1.229-12.34-0.808c-10.422,1.058-19.217,5.43-26.328,13.13
			c-5.668,6.138-9.184,13.367-10.564,21.6c-0.402,2.389-0.52,4.828-0.689,6.498C1068.939-144.213,1073.789-133.298,1083.695-124.794
			z"/>
		<path fill-rule="evenodd" clip-rule="evenodd" d="M1068.682-215.378c-0.004-9.301-7.51-16.788-16.824-16.788
			c-9.287,0-16.789,7.535-16.764,16.838c0.025,9.255,7.531,16.714,16.814,16.701
			C1061.178-198.637,1068.682-206.134,1068.682-215.378z"/>
		<path fill-rule="evenodd" clip-rule="evenodd" fill="#FFFFFF" d="M1068.609-157.983c0.33,13.771,5.18,24.686,15.086,33.189
			c6.139,5.267,13.301,8.392,21.367,9.314c16.477,1.886,32.357-6.328,40.406-20.846c2.738-4.938,4.537-10.188,5.141-15.796
			c1.35-12.558-1.971-23.726-10.285-33.296c-5.824-6.704-13.133-11.009-21.793-12.986c-4.066-0.93-8.189-1.229-12.34-0.808
			c-10.422,1.058-19.217,5.43-26.328,13.13c-5.668,6.138-9.184,13.367-10.564,21.6
			C1068.896-162.093,1068.779-159.653,1068.609-157.983z"/>
	</g>
	<g display="inline">
		<path fill-rule="evenodd" clip-rule="evenodd" d="M1229.678,91.649c0,14.585,0.217,29.177-0.059,43.757
			c-0.297,15.535-7.413,27.398-20.634,35.506c-6.504,3.989-13.69,5.723-21.314,5.718c-27.6-0.01-55.196-0.007-82.796-0.001
			c-10.307,0.001-19.437-3.276-27.297-9.931c-6.975-5.906-11.498-13.365-13.638-22.258c-0.767-3.183-1.101-6.424-1.101-9.694
			c-0.003-28.737-0.04-57.473,0.014-86.21c0.025-12.554,4.776-23.098,14.114-31.491c5.86-5.268,12.753-8.514,20.527-9.866
			c2.381-0.413,4.775-0.605,7.188-0.605c27.73,0.005,55.461,0.002,83.193,0.002c15.272,0,29.219,8.203,36.609,21.563
			c3.524,6.369,5.213,13.212,5.204,20.491c-0.018,14.341-0.005,28.681-0.005,43.021
			C1229.683,91.649,1229.681,91.649,1229.678,91.649z M1216.704,91.623c0-12.349,0.012-24.697-0.005-37.046
			c-0.006-4.547-0.92-8.928-2.691-13.115c-2.91-6.865-7.52-12.316-13.837-16.294c-5.482-3.453-11.478-5.336-17.958-5.349
			c-23.691-0.05-47.382-0.025-71.074-0.013c-1.438,0.001-2.884,0.079-4.312,0.252c-7.852,0.939-14.653,4.172-20.292,9.69
			c-7.106,6.951-10.706,15.464-10.719,25.412c-0.031,24.279-0.008,48.561-0.014,72.84c-0.001,3.879,0.568,7.662,1.807,11.338
			c1.578,4.675,4.012,8.857,7.341,12.508c4.212,4.622,9.289,7.923,15.239,9.867c3.689,1.207,7.483,1.716,11.359,1.713
			c22.553-0.006,45.106-0.002,67.66-0.006c1.194,0,2.39-0.024,3.584-0.057c5.046-0.127,9.81-1.378,14.329-3.603
			c11.922-5.868,19.582-18.162,19.582-31.433C1216.705,116.092,1216.704,103.858,1216.704,91.623z"/>
		<path fill-rule="evenodd" clip-rule="evenodd" fill="#FFFFFF" d="M1216.704,91.623c0,12.235,0.001,24.47,0,36.706
			c0,13.271-7.66,25.564-19.582,31.433c-4.52,2.225-9.283,3.476-14.329,3.603c-1.194,0.032-2.39,0.057-3.584,0.057
			c-22.554,0.004-45.107,0-67.66,0.006c-3.876,0.003-7.67-0.506-11.359-1.713c-5.95-1.944-11.027-5.245-15.239-9.867
			c-3.329-3.65-5.763-7.833-7.341-12.508c-1.238-3.676-1.808-7.459-1.807-11.338c0.006-24.279-0.018-48.561,0.014-72.84
			c0.013-9.948,3.612-18.461,10.719-25.412c5.639-5.519,12.44-8.751,20.292-9.69c1.428-0.173,2.873-0.251,4.312-0.252
			c23.692-0.013,47.383-0.037,71.074,0.013c6.48,0.013,12.476,1.896,17.958,5.349c6.317,3.978,10.927,9.429,13.837,16.294
			c1.771,4.188,2.686,8.568,2.691,13.115C1216.716,66.925,1216.704,79.274,1216.704,91.623z M1146.328,48.893
			c-23.472,0.01-42.198,18.715-42.761,41.601c-0.595,24.314,18.933,43.735,42.537,43.815c23.345,0.08,42.765-18.683,42.861-42.539
			C1189.061,67.964,1169.839,48.956,1146.328,48.893z M1177.683,47.208c-0.001,7.066,5.733,12.795,12.816,12.801
			c7.093,0.009,12.83-5.69,12.849-12.762c0.02-7.107-5.715-12.864-12.808-12.866C1183.42,34.38,1177.687,40.103,1177.683,47.208z"/>
		<path fill-rule="evenodd" clip-rule="evenodd" d="M1146.328,48.893c23.511,0.063,42.732,19.071,42.638,42.877
			c-0.097,23.856-19.517,42.619-42.861,42.539c-23.604-0.08-43.132-19.501-42.537-43.815
			C1104.13,67.608,1122.856,48.903,1146.328,48.893z M1177.738,91.064c-0.13-1.276-0.22-3.139-0.528-4.965
			c-1.054-6.291-3.737-11.814-8.071-16.505c-5.432-5.883-12.154-9.223-20.119-10.031c-3.171-0.321-6.321-0.093-9.428,0.616
			c-6.616,1.511-12.201,4.801-16.649,9.923c-6.354,7.313-8.89,15.846-7.858,25.44c0.459,4.284,1.834,8.298,3.927,12.071
			c6.149,11.091,18.283,17.367,30.874,15.927c6.163-0.705,11.635-3.093,16.325-7.116
			C1173.782,109.926,1177.487,101.585,1177.738,91.064z"/>
		<path fill-rule="evenodd" clip-rule="evenodd" d="M1177.683,47.208c0.004-7.104,5.737-12.827,12.857-12.827
			c7.093,0.002,12.827,5.759,12.808,12.866c-0.019,7.071-5.756,12.771-12.849,12.762
			C1183.416,60.002,1177.682,54.274,1177.683,47.208z"/>
		<path fill-rule="evenodd" clip-rule="evenodd" fill="#FFFFFF" d="M1177.738,91.064c-0.251,10.521-3.956,18.862-11.528,25.36
			c-4.69,4.023-10.162,6.411-16.325,7.116c-12.591,1.44-24.725-4.836-30.874-15.927c-2.093-3.773-3.468-7.787-3.927-12.071
			c-1.031-9.595,1.504-18.128,7.858-25.44c4.448-5.122,10.033-8.412,16.649-9.923c3.106-0.709,6.257-0.938,9.428-0.616
			c7.965,0.809,14.688,4.148,20.119,10.031c4.334,4.69,7.018,10.214,8.071,16.505C1177.519,87.925,1177.608,89.788,1177.738,91.064z
			"/>
	</g>
</g>
<g id="Layer_1">
	<g>
		<path fill-rule="evenodd" clip-rule="evenodd" d="M254.566,273.761c83.333-44.114,95.032-37.203,267.523-37.203
			C598.31,239.684,664,253,737.844,272.761C575.763,272.761,415.164,273.761,254.566,273.761z"/>
	</g>
	<path fill-rule="evenodd" clip-rule="evenodd" d="M385,179"/>
</g>
<g id="Layer_3" display="none">
	<g display="inline">
		<path fill-rule="evenodd" clip-rule="evenodd" d="M410,131.664l-28.524,94.164C401.793,161.127,626,236,626,236V29.202
			C480.5,142.111,410,131.664,410,131.664z"/>
	</g>
</g>
</svg>
